<mxfile host="app.diagrams.net" modified="2023-05-10T00:06:18.435Z" agent="Mozilla/5.0 (Windows NT 10.0; Win64; x64) AppleWebKit/537.36 (KHTML, like Gecko) Chrome/112.0.0.0 Safari/537.36" etag="cEeYaWEI4b6O8nrRJFWc" version="21.2.9" type="github">
  <diagram name="페이지-1" id="QQ_OfKvBQO5K5sDEvk7o">
    <mxGraphModel dx="819" dy="437" grid="1" gridSize="10" guides="1" tooltips="1" connect="1" arrows="1" fold="1" page="1" pageScale="1" pageWidth="827" pageHeight="1169" math="0" shadow="0">
      <root>
        <mxCell id="0" />
        <mxCell id="1" parent="0" />
        <mxCell id="AI55lBEJomkHNVLtmwJt-16" value="Subnet 192.168.55.0/24" style="sketch=0;outlineConnect=0;gradientColor=none;html=1;whiteSpace=wrap;fontSize=12;fontStyle=0;shape=mxgraph.aws4.group;grIcon=mxgraph.aws4.group_subnet;strokeColor=#879196;fillColor=none;verticalAlign=top;align=left;spacingLeft=30;fontColor=#879196;dashed=0;strokeWidth=6;" parent="1" vertex="1">
          <mxGeometry x="70" y="150" width="670" height="600" as="geometry" />
        </mxCell>
        <mxCell id="AI55lBEJomkHNVLtmwJt-17" value="Subnet 192.168.35.0/24" style="sketch=0;outlineConnect=0;html=1;whiteSpace=wrap;fontSize=12;fontStyle=0;shape=mxgraph.aws4.group;grIcon=mxgraph.aws4.group_subnet;strokeColor=#6c8ebf;fillColor=none;verticalAlign=top;align=left;spacingLeft=30;dashed=0;strokeWidth=6;" parent="1" vertex="1">
          <mxGeometry x="100" y="310" width="610" height="410" as="geometry" />
        </mxCell>
        <mxCell id="AI55lBEJomkHNVLtmwJt-36" style="edgeStyle=orthogonalEdgeStyle;rounded=0;orthogonalLoop=1;jettySize=auto;html=1;entryX=0.5;entryY=1;entryDx=0;entryDy=0;" parent="1" source="AI55lBEJomkHNVLtmwJt-19" target="AI55lBEJomkHNVLtmwJt-34" edge="1">
          <mxGeometry relative="1" as="geometry" />
        </mxCell>
        <mxCell id="qSY2CL4GeUEdYl0tzcfI-1" style="edgeStyle=orthogonalEdgeStyle;rounded=0;orthogonalLoop=1;jettySize=auto;html=1;exitX=0.5;exitY=1;exitDx=0;exitDy=0;exitPerimeter=0;" edge="1" parent="1" source="AI55lBEJomkHNVLtmwJt-19" target="AI55lBEJomkHNVLtmwJt-29">
          <mxGeometry relative="1" as="geometry" />
        </mxCell>
        <mxCell id="AI55lBEJomkHNVLtmwJt-19" value="" style="outlineConnect=0;dashed=0;verticalLabelPosition=bottom;verticalAlign=top;align=center;html=1;shape=mxgraph.aws3.router;fillColor=#F58534;gradientColor=none;" parent="1" vertex="1">
          <mxGeometry x="360" y="110" width="69" height="72" as="geometry" />
        </mxCell>
        <mxCell id="AI55lBEJomkHNVLtmwJt-40" style="edgeStyle=orthogonalEdgeStyle;rounded=0;orthogonalLoop=1;jettySize=auto;html=1;fillColor=#fad7ac;strokeColor=#b46504;strokeWidth=2;" parent="1" source="AI55lBEJomkHNVLtmwJt-29" target="AI55lBEJomkHNVLtmwJt-39" edge="1">
          <mxGeometry relative="1" as="geometry">
            <Array as="points">
              <mxPoint x="395" y="370" />
            </Array>
          </mxGeometry>
        </mxCell>
        <mxCell id="qSY2CL4GeUEdYl0tzcfI-2" style="edgeStyle=orthogonalEdgeStyle;rounded=0;orthogonalLoop=1;jettySize=auto;html=1;entryX=0.5;entryY=1;entryDx=0;entryDy=0;entryPerimeter=0;" edge="1" parent="1" source="AI55lBEJomkHNVLtmwJt-29" target="AI55lBEJomkHNVLtmwJt-19">
          <mxGeometry relative="1" as="geometry" />
        </mxCell>
        <mxCell id="AI55lBEJomkHNVLtmwJt-29" value="" style="outlineConnect=0;dashed=0;verticalLabelPosition=bottom;verticalAlign=top;align=center;html=1;shape=mxgraph.aws3.router;fillColor=#F58534;gradientColor=none;" parent="1" vertex="1">
          <mxGeometry x="369.5" y="280" width="50" height="52" as="geometry" />
        </mxCell>
        <mxCell id="AI55lBEJomkHNVLtmwJt-31" value="Docker Network&amp;nbsp;&lt;br&gt;172.21.0.0/16" style="sketch=0;outlineConnect=0;html=1;whiteSpace=wrap;fontSize=12;fontStyle=0;shape=mxgraph.aws4.group;grIcon=mxgraph.aws4.group_subnet;strokeColor=#9673a6;fillColor=none;verticalAlign=top;align=left;spacingLeft=30;dashed=0;strokeWidth=6;" parent="1" vertex="1">
          <mxGeometry x="429" y="380" width="264" height="320" as="geometry" />
        </mxCell>
        <mxCell id="AI55lBEJomkHNVLtmwJt-74" style="edgeStyle=orthogonalEdgeStyle;rounded=0;orthogonalLoop=1;jettySize=auto;html=1;entryX=0.36;entryY=0.045;entryDx=0;entryDy=0;entryPerimeter=0;strokeColor=#0000FF;strokeWidth=2;" parent="1" source="AI55lBEJomkHNVLtmwJt-59" target="AI55lBEJomkHNVLtmwJt-42" edge="1">
          <mxGeometry relative="1" as="geometry" />
        </mxCell>
        <mxCell id="AI55lBEJomkHNVLtmwJt-32" value="Dcoker Network&lt;br&gt;172.19.0.0/16" style="sketch=0;outlineConnect=0;html=1;whiteSpace=wrap;fontSize=12;fontStyle=0;shape=mxgraph.aws4.group;grIcon=mxgraph.aws4.group_subnet;strokeColor=#9673a6;fillColor=none;verticalAlign=top;align=left;spacingLeft=30;dashed=0;strokeWidth=6;" parent="1" vertex="1">
          <mxGeometry x="120" y="460" width="140" height="240" as="geometry" />
        </mxCell>
        <mxCell id="AI55lBEJomkHNVLtmwJt-38" style="edgeStyle=orthogonalEdgeStyle;rounded=0;orthogonalLoop=1;jettySize=auto;html=1;fillColor=#cdeb8b;strokeColor=#36393d;" parent="1" source="AI55lBEJomkHNVLtmwJt-34" target="AI55lBEJomkHNVLtmwJt-19" edge="1">
          <mxGeometry relative="1" as="geometry" />
        </mxCell>
        <mxCell id="AI55lBEJomkHNVLtmwJt-34" value="" style="image;aspect=fixed;perimeter=ellipsePerimeter;html=1;align=center;shadow=0;dashed=0;spacingTop=3;image=img/lib/active_directory/internet_cloud.svg;" parent="1" vertex="1">
          <mxGeometry x="369.5" y="10" width="50" height="31.5" as="geometry" />
        </mxCell>
        <mxCell id="AI55lBEJomkHNVLtmwJt-77" style="edgeStyle=orthogonalEdgeStyle;rounded=0;orthogonalLoop=1;jettySize=auto;html=1;strokeColor=#FF0000;strokeWidth=2;" parent="1" source="AI55lBEJomkHNVLtmwJt-39" target="AI55lBEJomkHNVLtmwJt-32" edge="1">
          <mxGeometry relative="1" as="geometry">
            <mxPoint x="180" y="450" as="targetPoint" />
            <Array as="points">
              <mxPoint x="180" y="370" />
            </Array>
          </mxGeometry>
        </mxCell>
        <mxCell id="AI55lBEJomkHNVLtmwJt-78" style="edgeStyle=orthogonalEdgeStyle;rounded=0;orthogonalLoop=1;jettySize=auto;html=1;strokeColor=#FF0000;strokeWidth=2;entryX=0;entryY=0.5;entryDx=0;entryDy=0;" parent="1" source="AI55lBEJomkHNVLtmwJt-39" target="AI55lBEJomkHNVLtmwJt-79" edge="1">
          <mxGeometry relative="1" as="geometry">
            <Array as="points">
              <mxPoint x="260" y="450" />
            </Array>
          </mxGeometry>
        </mxCell>
        <mxCell id="AI55lBEJomkHNVLtmwJt-83" style="edgeStyle=orthogonalEdgeStyle;rounded=0;orthogonalLoop=1;jettySize=auto;html=1;entryX=0;entryY=0.5;entryDx=0;entryDy=0;strokeColor=#FF0000;strokeWidth=2;" parent="1" source="AI55lBEJomkHNVLtmwJt-39" target="AI55lBEJomkHNVLtmwJt-80" edge="1">
          <mxGeometry relative="1" as="geometry">
            <Array as="points">
              <mxPoint x="260" y="450" />
              <mxPoint x="341" y="450" />
              <mxPoint x="341" y="471" />
            </Array>
          </mxGeometry>
        </mxCell>
        <mxCell id="AI55lBEJomkHNVLtmwJt-39" value="" style="sketch=0;outlineConnect=0;fontColor=#232F3E;gradientColor=none;strokeColor=#232F3E;fillColor=#ffffff;dashed=0;verticalLabelPosition=bottom;verticalAlign=top;align=center;html=1;fontSize=12;fontStyle=0;aspect=fixed;shape=mxgraph.aws4.resourceIcon;resIcon=mxgraph.aws4.traditional_server;" parent="1" vertex="1">
          <mxGeometry x="230" y="340" width="60" height="60" as="geometry" />
        </mxCell>
        <mxCell id="AI55lBEJomkHNVLtmwJt-50" style="edgeStyle=orthogonalEdgeStyle;rounded=0;orthogonalLoop=1;jettySize=auto;html=1;fillColor=#e51400;strokeColor=#7EA6E0;strokeWidth=3;" parent="1" source="AI55lBEJomkHNVLtmwJt-41" target="AI55lBEJomkHNVLtmwJt-42" edge="1">
          <mxGeometry relative="1" as="geometry" />
        </mxCell>
        <mxCell id="AI55lBEJomkHNVLtmwJt-41" value="d-sm-web" style="image;sketch=0;aspect=fixed;html=1;points=[];align=center;fontSize=12;image=img/lib/mscae/Docker.svg;" parent="1" vertex="1">
          <mxGeometry x="460" y="450" width="50" height="41" as="geometry" />
        </mxCell>
        <mxCell id="AI55lBEJomkHNVLtmwJt-51" style="edgeStyle=orthogonalEdgeStyle;rounded=0;orthogonalLoop=1;jettySize=auto;html=1;fillColor=#e51400;strokeColor=#7EA6E0;strokeWidth=2;" parent="1" source="AI55lBEJomkHNVLtmwJt-42" target="AI55lBEJomkHNVLtmwJt-44" edge="1">
          <mxGeometry relative="1" as="geometry" />
        </mxCell>
        <mxCell id="AI55lBEJomkHNVLtmwJt-42" value="d-msp-rs" style="image;sketch=0;aspect=fixed;html=1;points=[];align=center;fontSize=12;image=img/lib/mscae/Docker.svg;" parent="1" vertex="1">
          <mxGeometry x="460" y="608" width="50" height="41" as="geometry" />
        </mxCell>
        <mxCell id="AI55lBEJomkHNVLtmwJt-44" value="Postgresql" style="image;aspect=fixed;html=1;points=[];align=center;fontSize=12;image=img/lib/azure2/databases/Azure_Database_PostgreSQL_Server.svg;" parent="1" vertex="1">
          <mxGeometry x="610" y="596.5" width="48" height="64" as="geometry" />
        </mxCell>
        <mxCell id="AI55lBEJomkHNVLtmwJt-75" style="edgeStyle=orthogonalEdgeStyle;rounded=0;orthogonalLoop=1;jettySize=auto;html=1;strokeWidth=2;strokeColor=#0000FF;" parent="1" target="AI55lBEJomkHNVLtmwJt-41" edge="1">
          <mxGeometry relative="1" as="geometry">
            <Array as="points">
              <mxPoint x="175" y="520" />
              <mxPoint x="470" y="520" />
            </Array>
            <mxPoint x="175" y="560" as="sourcePoint" />
          </mxGeometry>
        </mxCell>
        <mxCell id="AI55lBEJomkHNVLtmwJt-59" value="JENKINS-NEW" style="image;sketch=0;aspect=fixed;html=1;points=[];align=center;fontSize=12;image=img/lib/mscae/Docker.svg;" parent="1" vertex="1">
          <mxGeometry x="150" y="567" width="50" height="41" as="geometry" />
        </mxCell>
        <mxCell id="AI55lBEJomkHNVLtmwJt-68" value="외부DNS&lt;br&gt;juwon-nas.synology.me" style="fillColor=none;strokeColor=none;html=1;fontSize=11;fontStyle=0;align=left;fontColor=#596780;fontStyle=1;fontSize=11" parent="1" vertex="1">
          <mxGeometry x="410" y="80" width="140" height="30" as="geometry" />
        </mxCell>
        <mxCell id="AI55lBEJomkHNVLtmwJt-70" value="내부IP&lt;br&gt;192.168.55.1" style="fillColor=none;strokeColor=none;html=1;fontSize=11;fontStyle=0;align=left;fontColor=#596780;fontStyle=1;fontSize=11" parent="1" vertex="1">
          <mxGeometry x="429" y="170" width="71" height="30" as="geometry" />
        </mxCell>
        <mxCell id="AI55lBEJomkHNVLtmwJt-71" value="내부IP&lt;br&gt;192.168.35.1" style="fillColor=none;strokeColor=none;html=1;fontSize=11;fontStyle=0;align=left;fontColor=#596780;fontStyle=1;fontSize=11" parent="1" vertex="1">
          <mxGeometry x="414.5" y="320" width="71" height="30" as="geometry" />
        </mxCell>
        <mxCell id="AI55lBEJomkHNVLtmwJt-72" value="내부IP&lt;br&gt;192.168.35.153" style="fillColor=none;strokeColor=none;html=1;fontSize=11;fontStyle=0;align=left;fontColor=#596780;fontStyle=1;fontSize=11" parent="1" vertex="1">
          <mxGeometry x="279.5" y="380" width="90" height="30" as="geometry" />
        </mxCell>
        <mxCell id="AI55lBEJomkHNVLtmwJt-73" value="외부IP&lt;br&gt;192.168.55.44" style="fillColor=none;strokeColor=none;html=1;fontSize=11;fontStyle=0;align=left;fontColor=#596780;fontStyle=1;fontSize=11" parent="1" vertex="1">
          <mxGeometry x="410" y="250" width="80" height="30" as="geometry" />
        </mxCell>
        <mxCell id="AI55lBEJomkHNVLtmwJt-79" value="9080&amp;nbsp; &amp;nbsp; &amp;nbsp; &amp;nbsp;80" style="fillColor=none;strokeColor=none;html=1;fontSize=11;fontStyle=0;align=left;fontColor=#596780;fontStyle=1;fontSize=11" parent="1" vertex="1">
          <mxGeometry x="391" y="435" width="150" height="30" as="geometry" />
        </mxCell>
        <mxCell id="AI55lBEJomkHNVLtmwJt-80" value="9443&amp;nbsp; &amp;nbsp; &amp;nbsp; &amp;nbsp;443" style="fillColor=none;strokeColor=none;html=1;fontSize=11;fontStyle=0;align=left;fontColor=#596780;fontStyle=1;fontSize=11" parent="1" vertex="1">
          <mxGeometry x="391" y="455.5" width="150" height="30" as="geometry" />
        </mxCell>
        <mxCell id="AI55lBEJomkHNVLtmwJt-84" style="edgeStyle=orthogonalEdgeStyle;rounded=0;orthogonalLoop=1;jettySize=auto;html=1;strokeColor=#FF0000;strokeWidth=2;" parent="1" edge="1">
          <mxGeometry relative="1" as="geometry">
            <mxPoint x="260" y="405" as="sourcePoint" />
            <mxPoint x="380" y="629" as="targetPoint" />
            <Array as="points">
              <mxPoint x="260" y="450" />
              <mxPoint x="341" y="450" />
              <mxPoint x="341" y="629" />
            </Array>
          </mxGeometry>
        </mxCell>
        <mxCell id="AI55lBEJomkHNVLtmwJt-85" value="18080&amp;nbsp; &amp;nbsp; &amp;nbsp; &amp;nbsp;8080" style="fillColor=none;strokeColor=none;html=1;fontSize=11;fontStyle=0;align=left;fontColor=#596780;fontStyle=1;fontSize=11" parent="1" vertex="1">
          <mxGeometry x="381" y="613.5" width="150" height="30" as="geometry" />
        </mxCell>
        <mxCell id="AI55lBEJomkHNVLtmwJt-86" value="13245 : 5432" style="fillColor=none;strokeColor=none;html=1;fontSize=11;fontStyle=0;align=left;fontColor=#596780;fontStyle=1;fontSize=11" parent="1" vertex="1">
          <mxGeometry x="610" y="555" width="77" height="30" as="geometry" />
        </mxCell>
        <mxCell id="AI55lBEJomkHNVLtmwJt-87" style="edgeStyle=orthogonalEdgeStyle;rounded=0;orthogonalLoop=1;jettySize=auto;html=1;strokeColor=#FF0000;strokeWidth=2;entryX=0;entryY=0.5;entryDx=0;entryDy=0;" parent="1" target="AI55lBEJomkHNVLtmwJt-86" edge="1">
          <mxGeometry relative="1" as="geometry">
            <mxPoint x="260" y="406" as="sourcePoint" />
            <mxPoint x="580" y="561" as="targetPoint" />
            <Array as="points">
              <mxPoint x="260" y="450" />
              <mxPoint x="341" y="450" />
              <mxPoint x="341" y="570" />
            </Array>
          </mxGeometry>
        </mxCell>
      </root>
    </mxGraphModel>
  </diagram>
</mxfile>
